<?xml version="1.0" standalone="no"?>
<!DOCTYPE svg PUBLIC "-//W3C//DTD SVG 20010904//EN"
 "http://www.w3.org/TR/2001/REC-SVG-20010904/DTD/svg10.dtd">
<svg version="1.0" xmlns="http://www.w3.org/2000/svg"
 width="300.000000pt" height="244.000000pt" viewBox="0 0 300.000000 244.000000"
 preserveAspectRatio="xMidYMid meet">
<metadata>
Created by potrace 1.10, written by Peter Selinger 2001-2011
</metadata>
<g transform="translate(0.000000,244.000000) scale(0.100000,-0.100000)"
fill="#000000" stroke="none">
<path d="M7 2433 c-4 -3 -7 -44 -7 -90 l0 -83 1498 2 1497 3 0 85 0 85 -1491
3 c-820 1 -1494 -1 -1497 -5z m2983 -78 l0 -75 -1490 0 -1490 0 0 75 0 75
1490 0 1490 0 0 -75z"/>
<path d="M210 1188 l0 -678 175 0 175 0 0 285 0 285 55 0 55 0 0 -285 0 -285
175 0 175 0 0 678 0 677 -175 0 -175 0 0 -242 0 -243 -55 0 -55 0 0 243 0 242
-175 0 -175 0 0 -677z m316 641 c4 -6 7 -108 8 -225 1 -241 2 -243 75 -248 29
-2 49 2 64 14 21 18 22 25 23 227 1 114 2 215 3 223 1 13 21 15 134 14 72 -1
138 -2 145 -3 9 -1 12 -136 12 -645 l0 -644 -140 -1 c-101 -1 -141 3 -147 12
-4 6 -8 129 -9 271 -2 295 0 286 -85 286 -74 0 -73 4 -74 -292 0 -191 -3 -261
-12 -266 -7 -4 -72 -8 -145 -7 l-133 0 -3 635 c-1 349 0 640 2 645 5 15 273
18 282 4z"/>
<path d="M1083 1840 c3 -14 49 -319 103 -678 l99 -652 265 2 265 3 87 645 c47
355 88 658 90 673 l3 28 -185 0 -185 0 -7 -58 c-26 -230 -68 -747 -68 -828 1
-78 15 -54 24 40 4 39 9 86 11 105 2 19 7 80 10 135 4 55 8 102 10 105 2 3 6
54 10 114 4 60 8 117 10 125 1 9 6 48 9 86 4 39 9 87 12 108 l6 37 155 0 156
0 -7 -57 c-9 -82 -15 -128 -27 -208 -6 -38 -12 -81 -14 -95 -2 -14 -6 -43 -9
-65 -3 -22 -8 -60 -11 -85 -3 -25 -8 -52 -10 -60 -2 -8 -6 -46 -10 -85 -3 -38
-15 -128 -25 -200 -11 -71 -22 -152 -25 -180 -9 -77 -25 -197 -31 -226 l-5
-27 -242 2 -242 1 -7 50 c-3 28 -11 79 -16 115 -6 36 -18 117 -27 180 -8 63
-22 158 -31 210 -8 52 -19 122 -24 155 -9 58 -18 119 -25 160 -2 11 -11 72
-20 135 -9 63 -19 118 -21 121 -2 3 -6 40 -10 83 -6 69 -5 76 12 77 55 3 285
1 289 -3 2 -2 7 -35 10 -74 2 -38 7 -78 9 -89 2 -11 7 -56 10 -100 7 -81 13
-132 21 -195 12 -99 15 -132 20 -210 9 -149 17 -209 31 -227 12 -16 13 -14 9
22 -2 22 -7 87 -10 145 -7 123 -51 571 -70 725 l-5 40 -186 0 -185 0 4 -25z"/>
<path d="M2060 1863 c0 -2 0 -306 0 -675 l0 -673 145 -3 146 -3 -3 311 c-2
170 0 310 5 310 4 0 7 -8 7 -17 0 -10 39 -150 87 -311 l86 -292 154 0 153 0 0
678 0 677 -146 -2 -145 -2 0 -303 c0 -184 -4 -295 -9 -283 -5 11 -50 148 -100
305 l-92 285 -144 0 c-79 0 -144 -1 -144 -2z m342 -248 c38 -115 71 -220 74
-233 10 -48 40 -115 56 -126 40 -25 43 0 42 295 l-2 279 122 0 121 0 -2 -643
-2 -642 -127 0 c-102 0 -128 3 -135 15 -4 8 -33 101 -64 205 -92 310 -106 354
-122 367 -12 10 -18 9 -29 -7 -11 -15 -14 -76 -14 -302 l0 -284 -115 2 c-63 1
-116 5 -116 8 -1 3 -3 293 -3 644 l-2 638 125 -3 124 -3 69 -210z"/>
<path d="M4 167 c-3 -8 -4 -47 -2 -88 l3 -74 1495 0 1495 0 0 85 0 85 -1493 3
c-1244 2 -1493 0 -1498 -11z m2986 -82 l0 -75 -1490 0 -1490 0 0 75 0 75 1490
0 1490 0 0 -75z"/>
</g>
</svg>
